<?xml version="1.0" encoding="UTF-8"?>
<svg xmlns="http://www.w3.org/2000/svg" viewBox="0 0 512 512">
  <defs>
    <style>
      .cls-1 {
        stroke: #000;
        stroke-miterlimit: 10;
        stroke-width: 5px;
      }

      .cls-2 {
        fill: #fff;
      }
    </style>
  </defs>
  <g id="Layer_4" data-name="Layer 4">
    <rect class="cls-2" x="0" y="0" width="512" height="512" rx="256" ry="256"/>
  </g>
  <g id="logo_reduc_2" data-name="logo reduc 2">
    <g>
      <path class="cls-1" d="M256,445.46c-104.47,0-189.46-84.99-189.46-189.46S151.53,66.54,256,66.54s189.46,84.99,189.46,189.46-84.99,189.46-189.46,189.46ZM256,74.46c-100.1,0-181.54,81.44-181.54,181.54s81.44,181.54,181.54,181.54,181.54-81.44,181.54-181.54-81.44-181.54-181.54-181.54Z"/>
      <path class="cls-1" d="M445.78,413.76H66.22v-7.91c27.61,0,35.63-4.35,35.63-33.11v-233.47c0-28.77-8.03-33.11-35.63-33.11v-7.92h379.56v7.92c-27.61,0-35.63,4.34-35.63,33.11v233.47c0,28.77,8.03,33.11,35.63,33.11v7.91ZM99.95,405.85h312.11c-6.67-5.95-9.82-16.11-9.82-33.11v-233.47c0-17,3.15-27.16,9.82-33.11H99.95c6.67,5.95,9.82,16.11,9.82,33.11v233.47c0,17-3.15,27.16-9.82,33.11Z"/>
    </g>
  </g>
</svg>